<mxfile>
    <diagram id="p36VjrqecLlJPFoIFrtN" name="Program flow">
        <mxGraphModel dx="1374" dy="1940" grid="1" gridSize="10" guides="1" tooltips="1" connect="1" arrows="1" fold="1" page="1" pageScale="1" pageWidth="827" pageHeight="1169" math="0" shadow="0">
            <root>
                <mxCell id="jjMcTZC-0KbnMyUXPdYv-0"/>
                <mxCell id="jjMcTZC-0KbnMyUXPdYv-1" parent="jjMcTZC-0KbnMyUXPdYv-0"/>
                <mxCell id="31" value="" style="rounded=1;whiteSpace=wrap;html=1;fillColor=none;dashed=1;" vertex="1" parent="jjMcTZC-0KbnMyUXPdYv-1">
                    <mxGeometry x="440" y="100" width="510" height="80" as="geometry"/>
                </mxCell>
                <mxCell id="20" value="" style="rounded=1;whiteSpace=wrap;html=1;fillColor=none;dashed=1;" vertex="1" parent="jjMcTZC-0KbnMyUXPdYv-1">
                    <mxGeometry x="140" y="290" width="740" height="100" as="geometry"/>
                </mxCell>
                <mxCell id="jjMcTZC-0KbnMyUXPdYv-2" value="Ocean Weather Service" style="rounded=1;whiteSpace=wrap;html=1;fillColor=#f0a30a;strokeColor=#BD7000;fontColor=#000000;" parent="jjMcTZC-0KbnMyUXPdYv-1" vertex="1">
                    <mxGeometry x="90" y="650" width="120" height="60" as="geometry"/>
                </mxCell>
                <mxCell id="jjMcTZC-0KbnMyUXPdYv-3" value="Power-Train Service" style="rounded=1;whiteSpace=wrap;html=1;fillColor=#f0a30a;strokeColor=#BD7000;fontColor=#000000;" parent="jjMcTZC-0KbnMyUXPdYv-1" vertex="1">
                    <mxGeometry x="230" y="650" width="120" height="60" as="geometry"/>
                </mxCell>
                <mxCell id="jjMcTZC-0KbnMyUXPdYv-4" value="Vessel Motion Service" style="rounded=1;whiteSpace=wrap;html=1;fillColor=#f0a30a;strokeColor=#BD7000;fontColor=#000000;" parent="jjMcTZC-0KbnMyUXPdYv-1" vertex="1">
                    <mxGeometry x="370" y="650" width="120" height="60" as="geometry"/>
                </mxCell>
                <mxCell id="jjMcTZC-0KbnMyUXPdYv-5" value="Process Vibration Service&lt;span style=&quot;color: rgba(0 , 0 , 0 , 0) ; font-family: monospace ; font-size: 0px&quot;&gt;%3CmxGraphModel%3E%3Croot%3E%3CmxCell%20id%3D%220%22%2F%3E%3CmxCell%20id%3D%221%22%20parent%3D%220%22%2F%3E%3CmxCell%20id%3D%222%22%20value%3D%22Power-train%20service%22%20style%3D%22rounded%3D1%3BwhiteSpace%3Dwrap%3Bhtml%3D1%3B%22%20vertex%3D%221%22%20parent%3D%221%22%3E%3CmxGeometry%20x%3D%22500%22%20y%3D%22370%22%20width%3D%22120%22%20height%3D%2260%22%20as%3D%22geometry%22%2F%3E%3C%2FmxCell%3E%3C%2Froot%3E%3C%2FmxGraphModel%3E&lt;/span&gt;" style="rounded=1;whiteSpace=wrap;html=1;fillColor=#f0a30a;strokeColor=#BD7000;fontColor=#000000;" parent="jjMcTZC-0KbnMyUXPdYv-1" vertex="1">
                    <mxGeometry x="510" y="650" width="120" height="60" as="geometry"/>
                </mxCell>
                <mxCell id="jjMcTZC-0KbnMyUXPdYv-6" value="Comfort Service" style="rounded=1;whiteSpace=wrap;html=1;fillColor=#f0a30a;strokeColor=#BD7000;fontColor=#000000;" parent="jjMcTZC-0KbnMyUXPdYv-1" vertex="1">
                    <mxGeometry x="650" y="650" width="120" height="60" as="geometry"/>
                </mxCell>
                <mxCell id="jjMcTZC-0KbnMyUXPdYv-7" value="Rigid Body Motion Service" style="rounded=1;whiteSpace=wrap;html=1;fillColor=#f0a30a;strokeColor=#BD7000;fontColor=#000000;" parent="jjMcTZC-0KbnMyUXPdYv-1" vertex="1">
                    <mxGeometry x="790" y="650" width="120" height="60" as="geometry"/>
                </mxCell>
                <mxCell id="jjMcTZC-0KbnMyUXPdYv-8" value="Motion Sickness Dose Value Service" style="rounded=1;whiteSpace=wrap;html=1;fillColor=#f0a30a;strokeColor=#BD7000;fontColor=#000000;" parent="jjMcTZC-0KbnMyUXPdYv-1" vertex="1">
                    <mxGeometry x="930" y="650" width="120" height="60" as="geometry"/>
                </mxCell>
                <mxCell id="jjMcTZC-0KbnMyUXPdYv-9" value="Propeller Monitor Service" style="rounded=1;whiteSpace=wrap;html=1;fillColor=#fa6800;strokeColor=#C73500;fontColor=#000000;" parent="jjMcTZC-0KbnMyUXPdYv-1" vertex="1">
                    <mxGeometry x="1111" y="650" width="120" height="60" as="geometry"/>
                </mxCell>
                <mxCell id="2" value="2" style="edgeStyle=orthogonalEdgeStyle;rounded=1;orthogonalLoop=1;jettySize=auto;html=1;exitX=0.5;exitY=1;exitDx=0;exitDy=0;fillColor=#d5e8d4;strokeColor=#82b366;entryX=0.25;entryY=0;entryDx=0;entryDy=0;strokeWidth=2;" edge="1" parent="jjMcTZC-0KbnMyUXPdYv-1" source="jjMcTZC-0KbnMyUXPdYv-10" target="jjMcTZC-0KbnMyUXPdYv-3">
                    <mxGeometry x="-0.5625" relative="1" as="geometry">
                        <Array as="points">
                            <mxPoint x="210" y="430"/>
                            <mxPoint x="260" y="430"/>
                        </Array>
                        <mxPoint as="offset"/>
                    </mxGeometry>
                </mxCell>
                <mxCell id="3" value="1" style="edgeStyle=orthogonalEdgeStyle;rounded=1;orthogonalLoop=1;jettySize=auto;html=1;exitX=0.5;exitY=1;exitDx=0;exitDy=0;fillColor=#d5e8d4;strokeColor=#82b366;entryX=0.25;entryY=0;entryDx=0;entryDy=0;strokeWidth=2;" edge="1" parent="jjMcTZC-0KbnMyUXPdYv-1" source="jjMcTZC-0KbnMyUXPdYv-10" target="jjMcTZC-0KbnMyUXPdYv-2">
                    <mxGeometry x="-0.6667" relative="1" as="geometry">
                        <Array as="points">
                            <mxPoint x="210" y="410"/>
                            <mxPoint x="120" y="410"/>
                        </Array>
                        <mxPoint as="offset"/>
                    </mxGeometry>
                </mxCell>
                <mxCell id="jjMcTZC-0KbnMyUXPdYv-10" value="Power-Train aggregator" style="rounded=1;whiteSpace=wrap;html=1;fillColor=#6d8764;strokeColor=#3A5431;fontColor=#ffffff;" parent="jjMcTZC-0KbnMyUXPdYv-1" vertex="1">
                    <mxGeometry x="150" y="300" width="120" height="80" as="geometry"/>
                </mxCell>
                <mxCell id="4" value="5" style="edgeStyle=orthogonalEdgeStyle;rounded=1;orthogonalLoop=1;jettySize=auto;html=1;exitX=0.5;exitY=1;exitDx=0;exitDy=0;entryX=0.5;entryY=0;entryDx=0;entryDy=0;fillColor=#6d8764;strokeWidth=2;strokeColor=#B9E6AA;" edge="1" parent="jjMcTZC-0KbnMyUXPdYv-1" source="jjMcTZC-0KbnMyUXPdYv-11" target="jjMcTZC-0KbnMyUXPdYv-6">
                    <mxGeometry x="0.0638" relative="1" as="geometry">
                        <Array as="points">
                            <mxPoint x="510" y="610"/>
                            <mxPoint x="710" y="610"/>
                        </Array>
                        <mxPoint as="offset"/>
                    </mxGeometry>
                </mxCell>
                <mxCell id="5" value="4" style="edgeStyle=orthogonalEdgeStyle;rounded=1;orthogonalLoop=1;jettySize=auto;html=1;exitX=0.5;exitY=1;exitDx=0;exitDy=0;fillColor=#6d8764;strokeWidth=2;strokeColor=#B9E6AA;" edge="1" parent="jjMcTZC-0KbnMyUXPdYv-1" source="jjMcTZC-0KbnMyUXPdYv-11" target="jjMcTZC-0KbnMyUXPdYv-5">
                    <mxGeometry x="0.4" relative="1" as="geometry">
                        <Array as="points">
                            <mxPoint x="510" y="590"/>
                            <mxPoint x="570" y="590"/>
                        </Array>
                        <mxPoint as="offset"/>
                    </mxGeometry>
                </mxCell>
                <mxCell id="6" value="3" style="edgeStyle=orthogonalEdgeStyle;rounded=1;orthogonalLoop=1;jettySize=auto;html=1;exitX=0.5;exitY=1;exitDx=0;exitDy=0;entryX=0.5;entryY=0;entryDx=0;entryDy=0;fillColor=#6d8764;strokeWidth=2;strokeColor=#B9E6AA;" edge="1" parent="jjMcTZC-0KbnMyUXPdYv-1" source="jjMcTZC-0KbnMyUXPdYv-11" target="jjMcTZC-0KbnMyUXPdYv-4">
                    <mxGeometry x="0.2" relative="1" as="geometry">
                        <Array as="points">
                            <mxPoint x="510" y="570"/>
                            <mxPoint x="430" y="570"/>
                        </Array>
                        <mxPoint as="offset"/>
                    </mxGeometry>
                </mxCell>
                <mxCell id="7" value="2" style="edgeStyle=orthogonalEdgeStyle;rounded=1;orthogonalLoop=1;jettySize=auto;html=1;exitX=0.5;exitY=1;exitDx=0;exitDy=0;entryX=0.5;entryY=0;entryDx=0;entryDy=0;fillColor=#6d8764;strokeWidth=2;strokeColor=#B9E6AA;" edge="1" parent="jjMcTZC-0KbnMyUXPdYv-1" source="jjMcTZC-0KbnMyUXPdYv-11" target="jjMcTZC-0KbnMyUXPdYv-3">
                    <mxGeometry x="-0.2245" relative="1" as="geometry">
                        <Array as="points">
                            <mxPoint x="510" y="550"/>
                            <mxPoint x="290" y="550"/>
                        </Array>
                        <mxPoint as="offset"/>
                    </mxGeometry>
                </mxCell>
                <mxCell id="8" value="1" style="edgeStyle=orthogonalEdgeStyle;rounded=1;orthogonalLoop=1;jettySize=auto;html=1;exitX=0.5;exitY=1;exitDx=0;exitDy=0;entryX=0.5;entryY=0;entryDx=0;entryDy=0;fillColor=#6d8764;strokeWidth=2;strokeColor=#B9E6AA;" edge="1" parent="jjMcTZC-0KbnMyUXPdYv-1" source="jjMcTZC-0KbnMyUXPdYv-11" target="jjMcTZC-0KbnMyUXPdYv-2">
                    <mxGeometry x="-0.4603" relative="1" as="geometry">
                        <Array as="points">
                            <mxPoint x="510" y="530"/>
                            <mxPoint x="150" y="530"/>
                        </Array>
                        <mxPoint as="offset"/>
                    </mxGeometry>
                </mxCell>
                <mxCell id="jjMcTZC-0KbnMyUXPdYv-11" value="Vessel-Motion Aggregator&lt;span style=&quot;color: rgba(0 , 0 , 0 , 0) ; font-family: monospace ; font-size: 0px&quot;&gt;%3CmxGraphModel%3E%3Croot%3E%3CmxCell%20id%3D%220%22%2F%3E%3CmxCell%20id%3D%221%22%20parent%3D%220%22%2F%3E%3CmxCell%20id%3D%222%22%20value%3D%22Power-Train%20aggregator%22%20style%3D%22rounded%3D1%3BwhiteSpace%3Dwrap%3Bhtml%3D1%3B%22%20vertex%3D%221%22%20parent%3D%221%22%3E%3CmxGeometry%20x%3D%22240%22%20y%3D%22120%22%20width%3D%22120%22%20height%3D%2280%22%20as%3D%22geometry%22%2F%3E%3C%2FmxCell%3E%3C%2Froot%3E%3C%2FmxGraphModel%3E&lt;/span&gt;" style="rounded=1;whiteSpace=wrap;html=1;strokeColor=#3A5431;fontColor=#ffffff;fillColor=#B9E6AA;" parent="jjMcTZC-0KbnMyUXPdYv-1" vertex="1">
                    <mxGeometry x="450" y="300" width="120" height="80" as="geometry"/>
                </mxCell>
                <mxCell id="9" value="5" style="edgeStyle=orthogonalEdgeStyle;rounded=1;orthogonalLoop=1;jettySize=auto;html=1;exitX=0.5;exitY=1;exitDx=0;exitDy=0;entryX=0.75;entryY=0;entryDx=0;entryDy=0;fillColor=#e1d5e7;strokeWidth=2;strokeColor=#1E5222;" edge="1" parent="jjMcTZC-0KbnMyUXPdYv-1" source="jjMcTZC-0KbnMyUXPdYv-12" target="jjMcTZC-0KbnMyUXPdYv-6">
                    <mxGeometry relative="1" as="geometry">
                        <Array as="points">
                            <mxPoint x="810" y="530"/>
                            <mxPoint x="740" y="530"/>
                        </Array>
                        <mxPoint as="offset"/>
                    </mxGeometry>
                </mxCell>
                <mxCell id="10" value="4" style="edgeStyle=orthogonalEdgeStyle;rounded=1;orthogonalLoop=1;jettySize=auto;html=1;exitX=0.5;exitY=1;exitDx=0;exitDy=0;entryX=0.75;entryY=0;entryDx=0;entryDy=0;fillColor=#e1d5e7;strokeWidth=2;strokeColor=#1E5222;" edge="1" parent="jjMcTZC-0KbnMyUXPdYv-1" source="jjMcTZC-0KbnMyUXPdYv-12" target="jjMcTZC-0KbnMyUXPdYv-5">
                    <mxGeometry x="-0.375" relative="1" as="geometry">
                        <Array as="points">
                            <mxPoint x="810" y="510"/>
                            <mxPoint x="600" y="510"/>
                        </Array>
                        <mxPoint as="offset"/>
                    </mxGeometry>
                </mxCell>
                <mxCell id="11" value="3" style="edgeStyle=orthogonalEdgeStyle;rounded=1;orthogonalLoop=1;jettySize=auto;html=1;exitX=0.5;exitY=1;exitDx=0;exitDy=0;entryX=0.75;entryY=0;entryDx=0;entryDy=0;fillColor=#e1d5e7;strokeWidth=2;strokeColor=#1E5222;" edge="1" parent="jjMcTZC-0KbnMyUXPdYv-1" source="jjMcTZC-0KbnMyUXPdYv-12" target="jjMcTZC-0KbnMyUXPdYv-4">
                    <mxGeometry x="-0.5806" relative="1" as="geometry">
                        <Array as="points">
                            <mxPoint x="810" y="490"/>
                            <mxPoint x="460" y="490"/>
                        </Array>
                        <mxPoint as="offset"/>
                    </mxGeometry>
                </mxCell>
                <mxCell id="12" value="2" style="edgeStyle=orthogonalEdgeStyle;rounded=1;orthogonalLoop=1;jettySize=auto;html=1;exitX=0.5;exitY=1;exitDx=0;exitDy=0;entryX=0.75;entryY=0;entryDx=0;entryDy=0;fillColor=#e1d5e7;strokeWidth=2;strokeColor=#1E5222;" edge="1" parent="jjMcTZC-0KbnMyUXPdYv-1" source="jjMcTZC-0KbnMyUXPdYv-12" target="jjMcTZC-0KbnMyUXPdYv-3">
                    <mxGeometry x="-0.7105" relative="1" as="geometry">
                        <Array as="points">
                            <mxPoint x="810" y="470"/>
                            <mxPoint x="320" y="470"/>
                        </Array>
                        <mxPoint as="offset"/>
                    </mxGeometry>
                </mxCell>
                <mxCell id="13" value="1" style="edgeStyle=orthogonalEdgeStyle;rounded=1;orthogonalLoop=1;jettySize=auto;html=1;exitX=0.5;exitY=1;exitDx=0;exitDy=0;entryX=0.75;entryY=0;entryDx=0;entryDy=0;fillColor=#e1d5e7;strokeWidth=2;strokeColor=#1E5222;" edge="1" parent="jjMcTZC-0KbnMyUXPdYv-1" source="jjMcTZC-0KbnMyUXPdYv-12" target="jjMcTZC-0KbnMyUXPdYv-2">
                    <mxGeometry x="-0.8" relative="1" as="geometry">
                        <Array as="points">
                            <mxPoint x="810" y="450"/>
                            <mxPoint x="180" y="450"/>
                        </Array>
                        <mxPoint as="offset"/>
                    </mxGeometry>
                </mxCell>
                <mxCell id="14" value="4" style="edgeStyle=orthogonalEdgeStyle;rounded=1;orthogonalLoop=1;jettySize=auto;html=1;exitX=0.5;exitY=1;exitDx=0;exitDy=0;entryX=0.75;entryY=0;entryDx=0;entryDy=0;fillColor=#e1d5e7;strokeWidth=2;strokeColor=#1E5222;" edge="1" parent="jjMcTZC-0KbnMyUXPdYv-1" source="jjMcTZC-0KbnMyUXPdYv-12" target="jjMcTZC-0KbnMyUXPdYv-7">
                    <mxGeometry x="-0.0323" relative="1" as="geometry">
                        <Array as="points">
                            <mxPoint x="810" y="510"/>
                            <mxPoint x="880" y="510"/>
                        </Array>
                        <mxPoint as="offset"/>
                    </mxGeometry>
                </mxCell>
                <mxCell id="15" value="5" style="edgeStyle=orthogonalEdgeStyle;rounded=1;orthogonalLoop=1;jettySize=auto;html=1;exitX=0.5;exitY=1;exitDx=0;exitDy=0;entryX=0.75;entryY=0;entryDx=0;entryDy=0;fillColor=#e1d5e7;strokeWidth=2;strokeColor=#1E5222;" edge="1" parent="jjMcTZC-0KbnMyUXPdYv-1" source="jjMcTZC-0KbnMyUXPdYv-12" target="jjMcTZC-0KbnMyUXPdYv-8">
                    <mxGeometry x="-0.2444" relative="1" as="geometry">
                        <Array as="points">
                            <mxPoint x="810" y="530"/>
                            <mxPoint x="1020" y="530"/>
                        </Array>
                        <mxPoint as="offset"/>
                    </mxGeometry>
                </mxCell>
                <mxCell id="jjMcTZC-0KbnMyUXPdYv-12" value="Route Comparison Aggregator" style="rounded=1;whiteSpace=wrap;html=1;strokeColor=#3A5431;fontColor=#ffffff;fillColor=#1E5222;" parent="jjMcTZC-0KbnMyUXPdYv-1" vertex="1">
                    <mxGeometry x="750" y="300" width="120" height="80" as="geometry"/>
                </mxCell>
                <mxCell id="19" value="" style="rounded=1;whiteSpace=wrap;html=1;fillColor=none;dashed=1;" vertex="1" parent="jjMcTZC-0KbnMyUXPdYv-1">
                    <mxGeometry x="80" y="640" width="1160" height="80" as="geometry"/>
                </mxCell>
                <mxCell id="26" style="edgeStyle=orthogonalEdgeStyle;rounded=1;orthogonalLoop=1;jettySize=auto;html=1;exitX=1;exitY=0.5;exitDx=0;exitDy=0;entryX=0;entryY=0.5;entryDx=0;entryDy=0;strokeWidth=2;" edge="1" parent="jjMcTZC-0KbnMyUXPdYv-1" source="21" target="22">
                    <mxGeometry relative="1" as="geometry"/>
                </mxCell>
                <mxCell id="27" style="edgeStyle=orthogonalEdgeStyle;orthogonalLoop=1;jettySize=auto;html=1;exitX=0.5;exitY=1;exitDx=0;exitDy=0;entryX=0.5;entryY=0;entryDx=0;entryDy=0;strokeWidth=2;fillColor=#dae8fc;curved=1;strokeColor=#6c8ebf;" edge="1" parent="jjMcTZC-0KbnMyUXPdYv-1" source="21" target="jjMcTZC-0KbnMyUXPdYv-10">
                    <mxGeometry relative="1" as="geometry"/>
                </mxCell>
                <mxCell id="28" style="edgeStyle=orthogonalEdgeStyle;orthogonalLoop=1;jettySize=auto;html=1;exitX=0.5;exitY=1;exitDx=0;exitDy=0;strokeWidth=2;fillColor=#dae8fc;curved=1;strokeColor=#6c8ebf;" edge="1" parent="jjMcTZC-0KbnMyUXPdYv-1" source="21" target="jjMcTZC-0KbnMyUXPdYv-11">
                    <mxGeometry relative="1" as="geometry"/>
                </mxCell>
                <mxCell id="29" style="edgeStyle=orthogonalEdgeStyle;orthogonalLoop=1;jettySize=auto;html=1;exitX=0.5;exitY=1;exitDx=0;exitDy=0;entryX=0.5;entryY=0;entryDx=0;entryDy=0;strokeWidth=2;fillColor=#dae8fc;curved=1;strokeColor=#6C8EBF;" edge="1" parent="jjMcTZC-0KbnMyUXPdYv-1" source="21" target="jjMcTZC-0KbnMyUXPdYv-12">
                    <mxGeometry relative="1" as="geometry"/>
                </mxCell>
                <mxCell id="39" style="edgeStyle=orthogonalEdgeStyle;curved=1;orthogonalLoop=1;jettySize=auto;html=1;exitX=0.5;exitY=1;exitDx=0;exitDy=0;strokeWidth=2;entryX=0.5;entryY=0;entryDx=0;entryDy=0;strokeColor=#6C8EBF;" edge="1" parent="jjMcTZC-0KbnMyUXPdYv-1" source="21" target="jjMcTZC-0KbnMyUXPdYv-9">
                    <mxGeometry relative="1" as="geometry">
                        <mxPoint x="1200" y="600" as="targetPoint"/>
                        <Array as="points">
                            <mxPoint x="510" y="230"/>
                            <mxPoint x="1171" y="230"/>
                        </Array>
                    </mxGeometry>
                </mxCell>
                <mxCell id="21" value="Web gateway" style="rounded=1;whiteSpace=wrap;html=1;fontColor=#ffffff;fillColor=#A6C4E0;strokeColor=#6B92B8;" vertex="1" parent="jjMcTZC-0KbnMyUXPdYv-1">
                    <mxGeometry x="450" y="110" width="120" height="60" as="geometry"/>
                </mxCell>
                <mxCell id="22" value="Authentication Service" style="rounded=1;whiteSpace=wrap;html=1;fontColor=#333333;fillColor=#f5f5f5;strokeColor=#666666;" vertex="1" parent="jjMcTZC-0KbnMyUXPdYv-1">
                    <mxGeometry x="760" y="110" width="120" height="60" as="geometry"/>
                </mxCell>
                <mxCell id="23" value="User DB" style="shape=datastore;whiteSpace=wrap;html=1;strokeColor=#666666;fillColor=#f5f5f5;fontColor=#333333;" vertex="1" parent="jjMcTZC-0KbnMyUXPdYv-1">
                    <mxGeometry x="880" y="110" width="60" height="60" as="geometry"/>
                </mxCell>
                <mxCell id="33" style="edgeStyle=orthogonalEdgeStyle;curved=1;orthogonalLoop=1;jettySize=auto;html=1;exitX=0.5;exitY=1;exitDx=0;exitDy=0;entryX=0.5;entryY=0;entryDx=0;entryDy=0;strokeColor=#6D1F00;strokeWidth=2;fillColor=#a0522d;" edge="1" parent="jjMcTZC-0KbnMyUXPdYv-1" source="32" target="21">
                    <mxGeometry relative="1" as="geometry"/>
                </mxCell>
                <mxCell id="32" value="Frontend" style="rounded=1;whiteSpace=wrap;html=1;strokeColor=#6D1F00;fillColor=#a0522d;fontColor=#ffffff;" vertex="1" parent="jjMcTZC-0KbnMyUXPdYv-1">
                    <mxGeometry x="450" y="-30" width="120" height="60" as="geometry"/>
                </mxCell>
                <mxCell id="35" style="edgeStyle=orthogonalEdgeStyle;curved=1;orthogonalLoop=1;jettySize=auto;html=1;entryX=0.5;entryY=0;entryDx=0;entryDy=0;strokeWidth=2;" edge="1" parent="jjMcTZC-0KbnMyUXPdYv-1" source="34" target="32">
                    <mxGeometry relative="1" as="geometry"/>
                </mxCell>
                <mxCell id="36" value="" style="edgeStyle=orthogonalEdgeStyle;curved=1;orthogonalLoop=1;jettySize=auto;html=1;strokeWidth=2;" edge="1" parent="jjMcTZC-0KbnMyUXPdYv-1" source="34" target="32">
                    <mxGeometry relative="1" as="geometry"/>
                </mxCell>
                <mxCell id="34" value="" style="shape=umlActor;verticalLabelPosition=bottom;verticalAlign=top;html=1;outlineConnect=0;" vertex="1" parent="jjMcTZC-0KbnMyUXPdYv-1">
                    <mxGeometry x="495" y="-160" width="30" height="60" as="geometry"/>
                </mxCell>
            </root>
        </mxGraphModel>
    </diagram>
    <diagram id="dsrl2bsn8HHQjmTc-GfR" name="Detailed mess">
        <mxGraphModel dx="3028" dy="771" grid="1" gridSize="10" guides="1" tooltips="1" connect="1" arrows="1" fold="1" page="1" pageScale="1" pageWidth="827" pageHeight="1169" math="0" shadow="0">
            <root>
                <mxCell id="0"/>
                <mxCell id="1" parent="0"/>
                <mxCell id="2" value="" style="rounded=1;whiteSpace=wrap;html=1;" parent="1" vertex="1">
                    <mxGeometry x="320" y="90" width="460" height="390" as="geometry"/>
                </mxCell>
                <mxCell id="3" value="" style="rounded=0;whiteSpace=wrap;html=1;" parent="1" vertex="1">
                    <mxGeometry x="470" y="200" width="160" height="230" as="geometry"/>
                </mxCell>
                <mxCell id="4" value="" style="rounded=1;whiteSpace=wrap;html=1;" parent="1" vertex="1">
                    <mxGeometry x="-670" y="670" width="280" height="350" as="geometry"/>
                </mxCell>
                <mxCell id="5" value="" style="rounded=0;whiteSpace=wrap;html=1;" parent="1" vertex="1">
                    <mxGeometry x="-670" y="780" width="140" height="190" as="geometry"/>
                </mxCell>
                <mxCell id="6" value="" style="rounded=0;whiteSpace=wrap;html=1;" parent="1" vertex="1">
                    <mxGeometry x="-530" y="780" width="140" height="190" as="geometry"/>
                </mxCell>
                <mxCell id="7" value="&lt;b&gt;Vessel Motion Estimation Service (Keith)&lt;/b&gt;" style="text;html=1;strokeColor=none;fillColor=none;align=center;verticalAlign=middle;whiteSpace=wrap;rounded=0;" parent="1" vertex="1">
                    <mxGeometry x="-610" y="670" width="160" height="30" as="geometry"/>
                </mxCell>
                <mxCell id="8" value="Motion estimate (foresight)" style="rounded=0;whiteSpace=wrap;html=1;" parent="1" vertex="1">
                    <mxGeometry x="-670" y="720" width="90" height="60" as="geometry"/>
                </mxCell>
                <mxCell id="9" value="Motion tracking (insight)" style="rounded=0;whiteSpace=wrap;html=1;" parent="1" vertex="1">
                    <mxGeometry x="-580" y="720" width="100" height="60" as="geometry"/>
                </mxCell>
                <mxCell id="10" value="Motion estimate evaluation (hindsight)" style="rounded=0;whiteSpace=wrap;html=1;" parent="1" vertex="1">
                    <mxGeometry x="-480" y="720" width="90" height="60" as="geometry"/>
                </mxCell>
                <mxCell id="11" value="Inputs" style="text;html=1;strokeColor=none;fillColor=none;align=center;verticalAlign=middle;whiteSpace=wrap;rounded=0;" parent="1" vertex="1">
                    <mxGeometry x="-620" y="780" width="40" height="20" as="geometry"/>
                </mxCell>
                <mxCell id="12" value="&lt;ul style=&quot;font-size: 11px&quot;&gt;&lt;li&gt;&lt;font color=&quot;#ff0000&quot;&gt;Port prop motor power&lt;/font&gt;&lt;/li&gt;&lt;li&gt;&lt;font color=&quot;#00ff00&quot;&gt;Rel. wind speed&lt;/font&gt;&lt;/li&gt;&lt;li&gt;&lt;font color=&quot;#00ff00&quot;&gt;Rel. wind dir.&lt;/font&gt;&lt;/li&gt;&lt;li&gt;&lt;font color=&quot;#ffff00&quot;&gt;Latitude&lt;/font&gt;&lt;/li&gt;&lt;li&gt;&lt;font color=&quot;#ffff00&quot;&gt;Heading (COG)&lt;/font&gt;&lt;/li&gt;&lt;li&gt;&lt;font color=&quot;#00ff00&quot;&gt;Wave Height&lt;/font&gt;&lt;/li&gt;&lt;li&gt;&lt;font color=&quot;#ffff00&quot;&gt;Location on ship&lt;/font&gt;&lt;/li&gt;&lt;/ul&gt;" style="text;html=1;strokeColor=none;fillColor=none;align=left;verticalAlign=middle;whiteSpace=wrap;rounded=0;" parent="1" vertex="1">
                    <mxGeometry x="-670" y="800" width="140" height="160" as="geometry"/>
                </mxCell>
                <mxCell id="13" value="Outputs" style="text;html=1;strokeColor=none;fillColor=none;align=center;verticalAlign=middle;whiteSpace=wrap;rounded=0;" parent="1" vertex="1">
                    <mxGeometry x="-480" y="780" width="40" height="20" as="geometry"/>
                </mxCell>
                <mxCell id="14" value="&lt;ul&gt;&lt;li&gt;&lt;font style=&quot;font-size: 11px&quot; color=&quot;#00ffff&quot;&gt;(High frequency) Acceleration estimate at a location&lt;/font&gt;&lt;/li&gt;&lt;/ul&gt;" style="text;html=1;strokeColor=none;fillColor=none;align=left;verticalAlign=middle;whiteSpace=wrap;rounded=0;" parent="1" vertex="1">
                    <mxGeometry x="-530" y="800" width="140" height="90" as="geometry"/>
                </mxCell>
                <mxCell id="15" value="" style="rounded=1;whiteSpace=wrap;html=1;" parent="1" vertex="1">
                    <mxGeometry x="-310" y="670" width="460" height="390" as="geometry"/>
                </mxCell>
                <mxCell id="16" value="" style="rounded=0;whiteSpace=wrap;html=1;" parent="1" vertex="1">
                    <mxGeometry x="-310" y="780" width="230" height="230" as="geometry"/>
                </mxCell>
                <mxCell id="17" value="" style="rounded=0;whiteSpace=wrap;html=1;" parent="1" vertex="1">
                    <mxGeometry x="-80" y="780" width="230" height="230" as="geometry"/>
                </mxCell>
                <mxCell id="18" value="&lt;b&gt;Power-Train Estimation Service (Gerhard)&lt;/b&gt;" style="text;html=1;strokeColor=none;fillColor=none;align=center;verticalAlign=middle;whiteSpace=wrap;rounded=0;" parent="1" vertex="1">
                    <mxGeometry x="-160" y="670" width="160" height="30" as="geometry"/>
                </mxCell>
                <mxCell id="19" value="Power estimate (foresight)" style="rounded=0;whiteSpace=wrap;html=1;" parent="1" vertex="1">
                    <mxGeometry x="-310" y="720" width="120" height="60" as="geometry"/>
                </mxCell>
                <mxCell id="20" value="Power tracking&amp;nbsp;(insight)" style="rounded=0;whiteSpace=wrap;html=1;" parent="1" vertex="1">
                    <mxGeometry x="-80" y="720" width="110" height="60" as="geometry"/>
                </mxCell>
                <mxCell id="21" value="Power estimate evaluation (hindsight)" style="rounded=0;whiteSpace=wrap;html=1;" parent="1" vertex="1">
                    <mxGeometry x="30" y="720" width="120" height="60" as="geometry"/>
                </mxCell>
                <mxCell id="22" value="Inputs" style="text;html=1;strokeColor=none;fillColor=none;align=center;verticalAlign=middle;whiteSpace=wrap;rounded=0;" parent="1" vertex="1">
                    <mxGeometry x="-215" y="780" width="40" height="20" as="geometry"/>
                </mxCell>
                <mxCell id="23" value="&lt;ul style=&quot;font-size: 11px&quot;&gt;&lt;li&gt;&lt;font color=&quot;#ffff00&quot;&gt;Port prop motor speed&lt;/font&gt;&lt;/li&gt;&lt;li&gt;&lt;font color=&quot;#ffff00&quot;&gt;Stbd prop motor speed&lt;/font&gt;&lt;/li&gt;&lt;li&gt;&lt;font color=&quot;#ffff00&quot;&gt;Port prop motor pitch&lt;/font&gt;&lt;/li&gt;&lt;li&gt;&lt;font color=&quot;#ffff00&quot;&gt;Stbd prop Motor Pitch&lt;/font&gt;&lt;/li&gt;&lt;li&gt;&lt;font color=&quot;#ffff00&quot;&gt;SOG&lt;/font&gt;&lt;/li&gt;&lt;li&gt;&lt;font color=&quot;#00ff00&quot;&gt;Rel. wind dir.&lt;/font&gt;&lt;/li&gt;&lt;li&gt;&lt;font color=&quot;#00ff00&quot;&gt;Wind speed&lt;/font&gt;&lt;/li&gt;&lt;li&gt;&lt;font color=&quot;#00ff00&quot;&gt;Beaufort number&lt;/font&gt;&lt;/li&gt;&lt;li&gt;&lt;font color=&quot;#00ff00&quot;&gt;Wave dir&lt;/font&gt;&lt;/li&gt;&lt;li&gt;&lt;font color=&quot;#00ff00&quot;&gt;Wave length&lt;/font&gt;&lt;/li&gt;&lt;/ul&gt;" style="text;html=1;strokeColor=none;fillColor=none;align=left;verticalAlign=middle;whiteSpace=wrap;rounded=0;" parent="1" vertex="1">
                    <mxGeometry x="-310" y="800" width="230" height="190" as="geometry"/>
                </mxCell>
                <mxCell id="24" value="Outputs" style="text;html=1;strokeColor=none;fillColor=none;align=center;verticalAlign=middle;whiteSpace=wrap;rounded=0;" parent="1" vertex="1">
                    <mxGeometry x="15" y="780" width="40" height="20" as="geometry"/>
                </mxCell>
                <mxCell id="25" value="&lt;ul&gt;&lt;li&gt;&lt;span style=&quot;font-size: 11px&quot;&gt;&lt;font color=&quot;#ff0000&quot;&gt;Motor power estimate&lt;/font&gt;&lt;/span&gt;&lt;/li&gt;&lt;li&gt;&lt;span style=&quot;font-size: 11px&quot;&gt;&lt;font color=&quot;#ff0000&quot;&gt;Cost Estimate&lt;/font&gt;&lt;/span&gt;&lt;/li&gt;&lt;/ul&gt;" style="text;html=1;strokeColor=none;fillColor=none;align=left;verticalAlign=middle;whiteSpace=wrap;rounded=0;" parent="1" vertex="1">
                    <mxGeometry x="-80" y="800" width="230" height="50" as="geometry"/>
                </mxCell>
                <mxCell id="26" value="Cost estimate (foresight)" style="rounded=0;whiteSpace=wrap;html=1;" parent="1" vertex="1">
                    <mxGeometry x="-190" y="720" width="110" height="60" as="geometry"/>
                </mxCell>
                <mxCell id="27" value="" style="rounded=1;whiteSpace=wrap;html=1;" parent="1" vertex="1">
                    <mxGeometry x="230" y="670" width="280" height="350" as="geometry"/>
                </mxCell>
                <mxCell id="28" value="" style="rounded=0;whiteSpace=wrap;html=1;" parent="1" vertex="1">
                    <mxGeometry x="230" y="780" width="140" height="190" as="geometry"/>
                </mxCell>
                <mxCell id="29" value="" style="rounded=0;whiteSpace=wrap;html=1;" parent="1" vertex="1">
                    <mxGeometry x="370" y="780" width="140" height="190" as="geometry"/>
                </mxCell>
                <mxCell id="30" value="&lt;b&gt;Wave Information Service&lt;/b&gt;" style="text;html=1;strokeColor=none;fillColor=none;align=center;verticalAlign=middle;whiteSpace=wrap;rounded=0;" parent="1" vertex="1">
                    <mxGeometry x="290" y="670" width="160" height="30" as="geometry"/>
                </mxCell>
                <mxCell id="31" value="Wave estimate (foresight)" style="rounded=0;whiteSpace=wrap;html=1;" parent="1" vertex="1">
                    <mxGeometry x="230" y="720" width="90" height="60" as="geometry"/>
                </mxCell>
                <mxCell id="32" value="Wave tracking&amp;nbsp;(insight)" style="rounded=0;whiteSpace=wrap;html=1;" parent="1" vertex="1">
                    <mxGeometry x="320" y="720" width="100" height="60" as="geometry"/>
                </mxCell>
                <mxCell id="33" value="Historical wave analysis (hindsight)" style="rounded=0;whiteSpace=wrap;html=1;" parent="1" vertex="1">
                    <mxGeometry x="420" y="720" width="90" height="60" as="geometry"/>
                </mxCell>
                <mxCell id="34" value="Inputs" style="text;html=1;strokeColor=none;fillColor=none;align=center;verticalAlign=middle;whiteSpace=wrap;rounded=0;" parent="1" vertex="1">
                    <mxGeometry x="280" y="780" width="40" height="20" as="geometry"/>
                </mxCell>
                <mxCell id="35" value="&lt;ul style=&quot;font-size: 11px&quot;&gt;&lt;li&gt;&lt;font color=&quot;#ffff00&quot;&gt;Latitude&lt;/font&gt;&lt;/li&gt;&lt;li&gt;&lt;font color=&quot;#ffff00&quot;&gt;Longitude&lt;/font&gt;&lt;/li&gt;&lt;li&gt;&lt;font color=&quot;#ffff00&quot;&gt;Time&lt;/font&gt;&lt;/li&gt;&lt;/ul&gt;" style="text;html=1;strokeColor=none;fillColor=none;align=left;verticalAlign=middle;whiteSpace=wrap;rounded=0;" parent="1" vertex="1">
                    <mxGeometry x="230" y="800" width="140" height="60" as="geometry"/>
                </mxCell>
                <mxCell id="36" value="Outputs" style="text;html=1;strokeColor=none;fillColor=none;align=center;verticalAlign=middle;whiteSpace=wrap;rounded=0;" parent="1" vertex="1">
                    <mxGeometry x="420" y="780" width="40" height="20" as="geometry"/>
                </mxCell>
                <mxCell id="37" value="&lt;ul&gt;&lt;li&gt;&lt;span style=&quot;font-size: 11px&quot;&gt;&lt;font color=&quot;#00ff00&quot;&gt;Wind dir.&lt;/font&gt;&lt;/span&gt;&lt;/li&gt;&lt;li&gt;&lt;span style=&quot;font-size: 11px&quot;&gt;&lt;font color=&quot;#00ff00&quot;&gt;Wind speed&lt;/font&gt;&lt;/span&gt;&lt;/li&gt;&lt;li&gt;&lt;span style=&quot;font-size: 11px&quot;&gt;&lt;font color=&quot;#00ff00&quot;&gt;(Beaufort number)&lt;/font&gt;&lt;/span&gt;&lt;/li&gt;&lt;li&gt;&lt;span style=&quot;font-size: 11px&quot;&gt;&lt;font color=&quot;#00ff00&quot;&gt;Wave dir.&lt;/font&gt;&lt;/span&gt;&lt;/li&gt;&lt;li&gt;&lt;span style=&quot;font-size: 11px&quot;&gt;&lt;font color=&quot;#00ff00&quot;&gt;Wave length&lt;/font&gt;&lt;/span&gt;&lt;/li&gt;&lt;li&gt;&lt;span style=&quot;font-size: 11px&quot;&gt;&lt;font color=&quot;#00ff00&quot;&gt;Wave height&lt;/font&gt;&lt;/span&gt;&lt;/li&gt;&lt;li&gt;&lt;span style=&quot;font-size: 11px&quot;&gt;&lt;font color=&quot;#00ff00&quot;&gt;Wave frequency&lt;/font&gt;&lt;/span&gt;&lt;/li&gt;&lt;li&gt;&lt;span style=&quot;font-size: 11px&quot;&gt;&lt;font color=&quot;#00ff00&quot;&gt;Wave period&lt;/font&gt;&lt;/span&gt;&lt;/li&gt;&lt;/ul&gt;" style="text;html=1;strokeColor=none;fillColor=none;align=left;verticalAlign=middle;whiteSpace=wrap;rounded=0;" parent="1" vertex="1">
                    <mxGeometry x="370" y="800" width="140" height="170" as="geometry"/>
                </mxCell>
                <mxCell id="38" value="" style="rounded=1;whiteSpace=wrap;html=1;" parent="1" vertex="1">
                    <mxGeometry x="590" y="670" width="280" height="350" as="geometry"/>
                </mxCell>
                <mxCell id="39" value="" style="rounded=0;whiteSpace=wrap;html=1;" parent="1" vertex="1">
                    <mxGeometry x="590" y="780" width="140" height="190" as="geometry"/>
                </mxCell>
                <mxCell id="40" value="" style="rounded=0;whiteSpace=wrap;html=1;" parent="1" vertex="1">
                    <mxGeometry x="730" y="780" width="140" height="190" as="geometry"/>
                </mxCell>
                <mxCell id="41" value="&lt;b&gt;Rigid Body Motion Service (Alex)&lt;/b&gt;" style="text;html=1;strokeColor=none;fillColor=none;align=center;verticalAlign=middle;whiteSpace=wrap;rounded=0;" parent="1" vertex="1">
                    <mxGeometry x="650" y="670" width="160" height="30" as="geometry"/>
                </mxCell>
                <mxCell id="42" value="Pitch tracking (insight)" style="rounded=0;whiteSpace=wrap;html=1;" parent="1" vertex="1">
                    <mxGeometry x="590" y="720" width="70" height="60" as="geometry"/>
                </mxCell>
                <mxCell id="43" value="Historical RMB analysis (hindsight)" style="rounded=0;whiteSpace=wrap;html=1;" parent="1" vertex="1">
                    <mxGeometry x="800" y="720" width="70" height="60" as="geometry"/>
                </mxCell>
                <mxCell id="44" value="Inputs" style="text;html=1;strokeColor=none;fillColor=none;align=center;verticalAlign=middle;whiteSpace=wrap;rounded=0;" parent="1" vertex="1">
                    <mxGeometry x="640" y="780" width="40" height="20" as="geometry"/>
                </mxCell>
                <mxCell id="45" value="&lt;ul style=&quot;font-size: 11px&quot;&gt;&lt;li&gt;&lt;font color=&quot;#00ff00&quot;&gt;Wave frequency&lt;/font&gt;&lt;/li&gt;&lt;li&gt;&lt;font color=&quot;#ffff00&quot;&gt;SOG&lt;/font&gt;&lt;/li&gt;&lt;li&gt;&lt;font color=&quot;#ffff00&quot;&gt;COG (indicent angle of waves)&lt;/font&gt;&lt;/li&gt;&lt;li&gt;&lt;font color=&quot;#ffff00&quot;&gt;Draft&lt;/font&gt;&lt;/li&gt;&lt;li&gt;&lt;font color=&quot;#00ff00&quot;&gt;Wave height&lt;/font&gt;&lt;/li&gt;&lt;li&gt;&lt;font color=&quot;#00ff00&quot;&gt;Wave period&lt;/font&gt;&lt;/li&gt;&lt;/ul&gt;" style="text;html=1;strokeColor=none;fillColor=none;align=left;verticalAlign=middle;whiteSpace=wrap;rounded=0;" parent="1" vertex="1">
                    <mxGeometry x="590" y="800" width="140" height="170" as="geometry"/>
                </mxCell>
                <mxCell id="46" value="Outputs" style="text;html=1;strokeColor=none;fillColor=none;align=center;verticalAlign=middle;whiteSpace=wrap;rounded=0;" parent="1" vertex="1">
                    <mxGeometry x="780" y="780" width="40" height="20" as="geometry"/>
                </mxCell>
                <mxCell id="47" value="&lt;ul&gt;&lt;li&gt;&lt;span style=&quot;font-size: 11px&quot;&gt;&lt;font color=&quot;#ff8000&quot;&gt;(Low freqency) Acceleration estimate&lt;/font&gt;&lt;/span&gt;&lt;/li&gt;&lt;/ul&gt;" style="text;html=1;strokeColor=none;fillColor=none;align=left;verticalAlign=middle;whiteSpace=wrap;rounded=0;" parent="1" vertex="1">
                    <mxGeometry x="730" y="800" width="140" height="70" as="geometry"/>
                </mxCell>
                <mxCell id="48" value="Heave tracking (insight)" style="rounded=0;whiteSpace=wrap;html=1;" parent="1" vertex="1">
                    <mxGeometry x="660" y="720" width="70" height="60" as="geometry"/>
                </mxCell>
                <mxCell id="49" value="Roll tracking (insight)" style="rounded=0;whiteSpace=wrap;html=1;" parent="1" vertex="1">
                    <mxGeometry x="730" y="720" width="70" height="60" as="geometry"/>
                </mxCell>
                <mxCell id="50" value="" style="rounded=1;whiteSpace=wrap;html=1;" parent="1" vertex="1">
                    <mxGeometry x="950" y="670" width="280" height="250" as="geometry"/>
                </mxCell>
                <mxCell id="51" value="" style="rounded=0;whiteSpace=wrap;html=1;" parent="1" vertex="1">
                    <mxGeometry x="950" y="780" width="140" height="100" as="geometry"/>
                </mxCell>
                <mxCell id="52" value="" style="rounded=0;whiteSpace=wrap;html=1;" parent="1" vertex="1">
                    <mxGeometry x="1090" y="780" width="140" height="100" as="geometry"/>
                </mxCell>
                <mxCell id="53" value="&lt;b&gt;MSDV Service (Nicole)&lt;/b&gt;" style="text;html=1;strokeColor=none;fillColor=none;align=center;verticalAlign=middle;whiteSpace=wrap;rounded=0;" parent="1" vertex="1">
                    <mxGeometry x="1010" y="670" width="160" height="30" as="geometry"/>
                </mxCell>
                <mxCell id="54" value="MSDV tracking (insight)" style="rounded=0;whiteSpace=wrap;html=1;" parent="1" vertex="1">
                    <mxGeometry x="950" y="720" width="140" height="60" as="geometry"/>
                </mxCell>
                <mxCell id="55" value="Historical MSDV analysis (hindsight)" style="rounded=0;whiteSpace=wrap;html=1;" parent="1" vertex="1">
                    <mxGeometry x="1090" y="720" width="140" height="60" as="geometry"/>
                </mxCell>
                <mxCell id="56" value="Inputs" style="text;html=1;strokeColor=none;fillColor=none;align=center;verticalAlign=middle;whiteSpace=wrap;rounded=0;" parent="1" vertex="1">
                    <mxGeometry x="1000" y="780" width="40" height="20" as="geometry"/>
                </mxCell>
                <mxCell id="57" value="&lt;ul style=&quot;font-size: 11px&quot;&gt;&lt;li&gt;&lt;font color=&quot;#ffff00&quot;&gt;Location on ship&lt;/font&gt;&lt;/li&gt;&lt;li&gt;(Sample rate)&lt;/li&gt;&lt;li&gt;&lt;font color=&quot;#ff8000&quot;&gt;(Low frequency) Acceleration&lt;/font&gt;&lt;/li&gt;&lt;/ul&gt;" style="text;html=1;strokeColor=none;fillColor=none;align=left;verticalAlign=middle;whiteSpace=wrap;rounded=0;" parent="1" vertex="1">
                    <mxGeometry x="950" y="800" width="140" height="70" as="geometry"/>
                </mxCell>
                <mxCell id="58" value="Outputs" style="text;html=1;strokeColor=none;fillColor=none;align=center;verticalAlign=middle;whiteSpace=wrap;rounded=0;" parent="1" vertex="1">
                    <mxGeometry x="1140" y="780" width="40" height="20" as="geometry"/>
                </mxCell>
                <mxCell id="59" value="&lt;ul&gt;&lt;li&gt;&lt;span style=&quot;font-size: 11px&quot;&gt;&lt;font color=&quot;#ff00ff&quot;&gt;MSDV&lt;/font&gt;&lt;/span&gt;&lt;/li&gt;&lt;/ul&gt;" style="text;html=1;strokeColor=none;fillColor=none;align=left;verticalAlign=middle;whiteSpace=wrap;rounded=0;" parent="1" vertex="1">
                    <mxGeometry x="1090" y="800" width="140" height="20" as="geometry"/>
                </mxCell>
                <mxCell id="60" value="" style="rounded=1;whiteSpace=wrap;html=1;" parent="1" vertex="1">
                    <mxGeometry x="1310" y="670" width="280" height="250" as="geometry"/>
                </mxCell>
                <mxCell id="61" value="" style="rounded=0;whiteSpace=wrap;html=1;" parent="1" vertex="1">
                    <mxGeometry x="1310" y="780" width="140" height="100" as="geometry"/>
                </mxCell>
                <mxCell id="62" value="" style="rounded=0;whiteSpace=wrap;html=1;" parent="1" vertex="1">
                    <mxGeometry x="1450" y="780" width="140" height="100" as="geometry"/>
                </mxCell>
                <mxCell id="63" value="&lt;b&gt;Propeller Monitoring Service (Brendon)&lt;/b&gt;" style="text;html=1;strokeColor=none;fillColor=none;align=center;verticalAlign=middle;whiteSpace=wrap;rounded=0;" parent="1" vertex="1">
                    <mxGeometry x="1370" y="670" width="160" height="30" as="geometry"/>
                </mxCell>
                <mxCell id="64" value="Propellor monitoring service (insight)" style="rounded=0;whiteSpace=wrap;html=1;" parent="1" vertex="1">
                    <mxGeometry x="1310" y="720" width="280" height="60" as="geometry"/>
                </mxCell>
                <mxCell id="65" value="Inputs" style="text;html=1;strokeColor=none;fillColor=none;align=center;verticalAlign=middle;whiteSpace=wrap;rounded=0;" parent="1" vertex="1">
                    <mxGeometry x="1360" y="780" width="40" height="20" as="geometry"/>
                </mxCell>
                <mxCell id="66" value="&lt;ul style=&quot;font-size: 11px&quot;&gt;&lt;li&gt;Shaft torque&lt;/li&gt;&lt;li&gt;Angular velocity&lt;/li&gt;&lt;/ul&gt;" style="text;html=1;strokeColor=none;fillColor=none;align=left;verticalAlign=middle;whiteSpace=wrap;rounded=0;" parent="1" vertex="1">
                    <mxGeometry x="1310" y="800" width="140" height="40" as="geometry"/>
                </mxCell>
                <mxCell id="67" value="Outputs" style="text;html=1;strokeColor=none;fillColor=none;align=center;verticalAlign=middle;whiteSpace=wrap;rounded=0;" parent="1" vertex="1">
                    <mxGeometry x="1500" y="780" width="40" height="20" as="geometry"/>
                </mxCell>
                <mxCell id="68" value="&lt;ul&gt;&lt;li&gt;&lt;span style=&quot;font-size: 11px&quot;&gt;Induced propeller moment&lt;/span&gt;&lt;/li&gt;&lt;/ul&gt;" style="text;html=1;strokeColor=none;fillColor=none;align=left;verticalAlign=middle;whiteSpace=wrap;rounded=0;" parent="1" vertex="1">
                    <mxGeometry x="1450" y="800" width="140" height="30" as="geometry"/>
                </mxCell>
                <mxCell id="69" value="" style="rounded=1;whiteSpace=wrap;html=1;" parent="1" vertex="1">
                    <mxGeometry x="-220" y="90" width="460" height="390" as="geometry"/>
                </mxCell>
                <mxCell id="70" value="" style="rounded=0;whiteSpace=wrap;html=1;" parent="1" vertex="1">
                    <mxGeometry x="-220" y="200" width="150" height="230" as="geometry"/>
                </mxCell>
                <mxCell id="71" value="" style="rounded=0;whiteSpace=wrap;html=1;" parent="1" vertex="1">
                    <mxGeometry x="90" y="200" width="150" height="230" as="geometry"/>
                </mxCell>
                <mxCell id="72" value="&lt;b&gt;Route Information Aggregator&lt;/b&gt;" style="text;html=1;strokeColor=none;fillColor=none;align=center;verticalAlign=middle;whiteSpace=wrap;rounded=0;" parent="1" vertex="1">
                    <mxGeometry x="-70" y="90" width="160" height="30" as="geometry"/>
                </mxCell>
                <mxCell id="73" value="Route analyser (foresight)" style="rounded=0;whiteSpace=wrap;html=1;" parent="1" vertex="1">
                    <mxGeometry x="-220" y="140" width="150" height="60" as="geometry"/>
                </mxCell>
                <mxCell id="74" value="Historical route analysis (hindsight)" style="rounded=0;whiteSpace=wrap;html=1;" parent="1" vertex="1">
                    <mxGeometry x="90" y="140" width="150" height="60" as="geometry"/>
                </mxCell>
                <mxCell id="75" value="Inputs" style="text;html=1;strokeColor=none;fillColor=none;align=center;verticalAlign=middle;whiteSpace=wrap;rounded=0;" parent="1" vertex="1">
                    <mxGeometry x="-125" y="200" width="40" height="20" as="geometry"/>
                </mxCell>
                <mxCell id="76" value="&lt;ul style=&quot;font-size: 11px&quot;&gt;&lt;li&gt;&lt;font color=&quot;#ffff00&quot;&gt;Latitude&lt;/font&gt;&lt;/li&gt;&lt;li&gt;&lt;font color=&quot;#ffff00&quot;&gt;Longitude&lt;/font&gt;&lt;/li&gt;&lt;li&gt;&lt;font color=&quot;#ffff00&quot;&gt;Assosciated time&lt;/font&gt;&lt;/li&gt;&lt;li&gt;&lt;font color=&quot;#ffff00&quot;&gt;Heading (COG)&lt;/font&gt;&lt;/li&gt;&lt;li&gt;&lt;font color=&quot;#ffff00&quot;&gt;(Parameter preference)&lt;/font&gt;&lt;/li&gt;&lt;li&gt;&lt;font color=&quot;#ffff00&quot;&gt;Propellor pitch&lt;/font&gt;&lt;/li&gt;&lt;li&gt;&lt;font color=&quot;#ffff00&quot;&gt;Motor speed&lt;/font&gt;&lt;/li&gt;&lt;li&gt;&lt;font color=&quot;#ffff00&quot;&gt;Planned SOG&lt;/font&gt;&lt;/li&gt;&lt;li&gt;&lt;font color=&quot;#ffff00&quot;&gt;Location on ship&lt;/font&gt;&lt;/li&gt;&lt;/ul&gt;" style="text;html=1;strokeColor=none;fillColor=none;align=left;verticalAlign=middle;whiteSpace=wrap;rounded=0;" parent="1" vertex="1">
                    <mxGeometry x="-220" y="220" width="150" height="210" as="geometry"/>
                </mxCell>
                <mxCell id="77" value="Outputs" style="text;html=1;strokeColor=none;fillColor=none;align=center;verticalAlign=middle;whiteSpace=wrap;rounded=0;" parent="1" vertex="1">
                    <mxGeometry x="140" y="200" width="40" height="20" as="geometry"/>
                </mxCell>
                <mxCell id="78" value="&lt;ul&gt;&lt;li&gt;&lt;br&gt;&lt;/li&gt;&lt;/ul&gt;" style="text;html=1;strokeColor=none;fillColor=none;align=left;verticalAlign=middle;whiteSpace=wrap;rounded=0;" parent="1" vertex="1">
                    <mxGeometry x="10" y="220" width="230" height="50" as="geometry"/>
                </mxCell>
                <mxCell id="79" value="Route comparison (foresight)" style="rounded=0;whiteSpace=wrap;html=1;" parent="1" vertex="1">
                    <mxGeometry x="-70" y="140" width="160" height="60" as="geometry"/>
                </mxCell>
                <mxCell id="80" value="" style="rounded=0;whiteSpace=wrap;html=1;" parent="1" vertex="1">
                    <mxGeometry x="320" y="200" width="150" height="230" as="geometry"/>
                </mxCell>
                <mxCell id="81" value="" style="rounded=0;whiteSpace=wrap;html=1;" parent="1" vertex="1">
                    <mxGeometry x="630" y="200" width="150" height="230" as="geometry"/>
                </mxCell>
                <mxCell id="82" value="&lt;b&gt;Comfort Monitor Aggregator&lt;/b&gt;" style="text;html=1;strokeColor=none;fillColor=none;align=center;verticalAlign=middle;whiteSpace=wrap;rounded=0;" parent="1" vertex="1">
                    <mxGeometry x="470" y="90" width="160" height="30" as="geometry"/>
                </mxCell>
                <mxCell id="83" value="Route analyser (foresight)" style="rounded=0;whiteSpace=wrap;html=1;" parent="1" vertex="1">
                    <mxGeometry x="320" y="140" width="150" height="60" as="geometry"/>
                </mxCell>
                <mxCell id="84" value="Historical route analysis (hindsight)" style="rounded=0;whiteSpace=wrap;html=1;" parent="1" vertex="1">
                    <mxGeometry x="630" y="140" width="150" height="60" as="geometry"/>
                </mxCell>
                <mxCell id="85" value="Inputs" style="text;html=1;strokeColor=none;fillColor=none;align=center;verticalAlign=middle;whiteSpace=wrap;rounded=0;" parent="1" vertex="1">
                    <mxGeometry x="375" y="200" width="40" height="20" as="geometry"/>
                </mxCell>
                <mxCell id="86" value="&lt;ul style=&quot;font-size: 11px&quot;&gt;&lt;li&gt;&lt;span style=&quot;color: rgb(255 , 255 , 0)&quot;&gt;Latitude&lt;/span&gt;&lt;/li&gt;&lt;li&gt;&lt;span style=&quot;color: rgb(255 , 255 , 0)&quot;&gt;Heading (COG)&lt;/span&gt;&lt;br&gt;&lt;/li&gt;&lt;li&gt;&lt;span style=&quot;color: rgb(255 , 255 , 0)&quot;&gt;Planned SOG&lt;/span&gt;&lt;br&gt;&lt;/li&gt;&lt;li&gt;&lt;font color=&quot;#ffff00&quot;&gt;Location on ship&lt;/font&gt;&lt;/li&gt;&lt;li&gt;&lt;font color=&quot;#ffff00&quot;&gt;Draft&lt;/font&gt;&lt;/li&gt;&lt;/ul&gt;" style="text;html=1;strokeColor=none;fillColor=none;align=left;verticalAlign=middle;whiteSpace=wrap;rounded=0;" parent="1" vertex="1">
                    <mxGeometry x="320" y="220" width="230" height="100" as="geometry"/>
                </mxCell>
                <mxCell id="87" value="Outputs" style="text;html=1;strokeColor=none;fillColor=none;align=center;verticalAlign=middle;whiteSpace=wrap;rounded=0;" parent="1" vertex="1">
                    <mxGeometry x="675" y="200" width="40" height="20" as="geometry"/>
                </mxCell>
                <mxCell id="88" value="Route comparison (foresight)" style="rounded=0;whiteSpace=wrap;html=1;" parent="1" vertex="1">
                    <mxGeometry x="470" y="140" width="160" height="60" as="geometry"/>
                </mxCell>
                <mxCell id="89" value="" style="rounded=0;whiteSpace=wrap;html=1;" parent="1" vertex="1">
                    <mxGeometry x="-70" y="200" width="160" height="230" as="geometry"/>
                </mxCell>
                <mxCell id="90" value="Call order" style="text;html=1;strokeColor=none;fillColor=none;align=center;verticalAlign=middle;whiteSpace=wrap;rounded=0;" parent="1" vertex="1">
                    <mxGeometry x="-15" y="200" width="40" height="30" as="geometry"/>
                </mxCell>
                <mxCell id="91" value="&lt;ol&gt;&lt;li&gt;Wave Forecast Service&lt;/li&gt;&lt;li&gt;Power-Train Estimation Service&lt;/li&gt;&lt;li&gt;Vessel Motion Estimation Service&lt;/li&gt;&lt;li&gt;Vibration comfort service????&lt;/li&gt;&lt;/ol&gt;" style="text;html=1;strokeColor=none;fillColor=none;align=left;verticalAlign=middle;whiteSpace=wrap;rounded=0;" parent="1" vertex="1">
                    <mxGeometry x="-70" y="220" width="160" height="210" as="geometry"/>
                </mxCell>
                <mxCell id="92" value="Call order" style="text;html=1;strokeColor=none;fillColor=none;align=center;verticalAlign=middle;whiteSpace=wrap;rounded=0;" parent="1" vertex="1">
                    <mxGeometry x="525" y="200" width="40" height="30" as="geometry"/>
                </mxCell>
                <mxCell id="93" value="&lt;ol&gt;&lt;li&gt;Wave Forecast Service&lt;/li&gt;&lt;li&gt;Power-Train Estimation Service | Rigid Body Motion Service&lt;/li&gt;&lt;li&gt;Vessel Motion Estimation Service | MSDV Service&lt;/li&gt;&lt;li&gt;Vibration comfort service????&lt;/li&gt;&lt;/ol&gt;" style="text;html=1;strokeColor=none;fillColor=none;align=left;verticalAlign=middle;whiteSpace=wrap;rounded=0;" parent="1" vertex="1">
                    <mxGeometry x="470" y="220" width="160" height="210" as="geometry"/>
                </mxCell>
                <mxCell id="94" value="" style="rounded=1;whiteSpace=wrap;html=1;" parent="1" vertex="1">
                    <mxGeometry x="-1030" y="670" width="280" height="350" as="geometry"/>
                </mxCell>
                <mxCell id="95" value="" style="rounded=0;whiteSpace=wrap;html=1;" parent="1" vertex="1">
                    <mxGeometry x="-1030" y="780" width="140" height="190" as="geometry"/>
                </mxCell>
                <mxCell id="96" value="" style="rounded=0;whiteSpace=wrap;html=1;" parent="1" vertex="1">
                    <mxGeometry x="-890" y="780" width="140" height="190" as="geometry"/>
                </mxCell>
                <mxCell id="97" value="&lt;b&gt;VDV Service (Keith)&lt;/b&gt;" style="text;html=1;strokeColor=none;fillColor=none;align=center;verticalAlign=middle;whiteSpace=wrap;rounded=0;" parent="1" vertex="1">
                    <mxGeometry x="-970" y="670" width="160" height="30" as="geometry"/>
                </mxCell>
                <mxCell id="98" value="Comfort sstimation (foresight)" style="rounded=0;whiteSpace=wrap;html=1;" parent="1" vertex="1">
                    <mxGeometry x="-1030" y="720" width="90" height="60" as="geometry"/>
                </mxCell>
                <mxCell id="99" value="Comfort tracking (insight)" style="rounded=0;whiteSpace=wrap;html=1;" parent="1" vertex="1">
                    <mxGeometry x="-940" y="720" width="100" height="60" as="geometry"/>
                </mxCell>
                <mxCell id="100" value="Comfort estimate evaluation (hindsight)" style="rounded=0;whiteSpace=wrap;html=1;" parent="1" vertex="1">
                    <mxGeometry x="-840" y="720" width="90" height="60" as="geometry"/>
                </mxCell>
                <mxCell id="101" value="Inputs" style="text;html=1;strokeColor=none;fillColor=none;align=center;verticalAlign=middle;whiteSpace=wrap;rounded=0;" parent="1" vertex="1">
                    <mxGeometry x="-980" y="780" width="40" height="20" as="geometry"/>
                </mxCell>
                <mxCell id="102" value="&lt;ul style=&quot;font-size: 11px&quot;&gt;&lt;li&gt;&lt;font color=&quot;#00ffff&quot;&gt;(High frequency) Acceleration&lt;/font&gt;&lt;/li&gt;&lt;/ul&gt;" style="text;html=1;strokeColor=none;fillColor=none;align=left;verticalAlign=middle;whiteSpace=wrap;rounded=0;" parent="1" vertex="1">
                    <mxGeometry x="-1030" y="800" width="140" height="40" as="geometry"/>
                </mxCell>
                <mxCell id="103" value="Outputs" style="text;html=1;strokeColor=none;fillColor=none;align=center;verticalAlign=middle;whiteSpace=wrap;rounded=0;" parent="1" vertex="1">
                    <mxGeometry x="-840" y="780" width="40" height="20" as="geometry"/>
                </mxCell>
                <mxCell id="104" value="&lt;ul&gt;&lt;li&gt;&lt;font style=&quot;font-size: 11px&quot; color=&quot;#ffffff&quot;&gt;Health guidance caution zones? (Annex B of ISO 2631-1&lt;/font&gt;&lt;/li&gt;&lt;li&gt;&lt;font style=&quot;font-size: 11px&quot; color=&quot;#ffffff&quot;&gt;Comfort classification (Annex C of ISO2631-1&lt;/font&gt;&lt;/li&gt;&lt;/ul&gt;" style="text;html=1;strokeColor=none;fillColor=none;align=left;verticalAlign=middle;whiteSpace=wrap;rounded=0;" parent="1" vertex="1">
                    <mxGeometry x="-890" y="805" width="140" height="115" as="geometry"/>
                </mxCell>
            </root>
        </mxGraphModel>
    </diagram>
</mxfile>